<?xml version="1.0" encoding="utf-8"?>
<!-- Generator: Adobe Illustrator 27.0.0, SVG Export Plug-In . SVG Version: 6.00 Build 0)  -->
<svg version="1.1" id="svg1580" xmlns="http://www.w3.org/2000/svg" xmlns:xlink="http://www.w3.org/1999/xlink" x="0px" y="0px"
	 viewBox="0 0 222 40" style="enable-background:new 0 0 222 40;" xml:space="preserve">
<style type="text/css">
	.st0{fill:none;}
	.st1{fill:#8EC744;}
	.st2{fill:url(#SVGID_00000127010766276146149700000003211909607927469981_);}
	.st3{fill:#015EAB;}
</style>
<rect class="st0" width="222" height="40"/>
<g>
	<path id="path1283" class="st1" d="M14.1,21.4c0-4,2.6-7.4,6.2-8.5c1.1-2.4,2-5.1,2.7-8c0.3-0.9,0.2-1.2,0.1-1.2l0,0
		c-9.8,0-17.7,7.9-17.7,17.7c0,4.8,1.9,9.1,5,12.3l7.6-5C15.7,27.1,14.1,24.4,14.1,21.4"/>
	<path id="path1285" class="st1" d="M28.6,4.5L26.4,13c3.3,1.3,5.7,4.5,5.7,8.3l0,0c0,4.9-4,8.9-9,8.9c-0.3,0-0.6,0-0.8,0
		c-3.4,3-6.7,4.7-9.2,5.7c2.8,2,6.3,3.1,10,3.1c9.8,0,17.7-7.9,17.7-17.7l0,0C40.8,13.5,35.7,6.9,28.6,4.5"/>
	<g>
		<g>
			
				<linearGradient id="SVGID_00000041254090226326398630000012361726651260018583_" gradientUnits="userSpaceOnUse" x1="4.6052" y1="-72.6413" x2="37.0053" y2="-32.369" gradientTransform="matrix(1 0 0 -1 0 -36.2)">
				<stop  offset="0" style="stop-color:#0095D1"/>
				<stop  offset="0.2511" style="stop-color:#008DCC"/>
				<stop  offset="0.6296" style="stop-color:#0179BD"/>
				<stop  offset="1" style="stop-color:#015EAB"/>
			</linearGradient>
			<path id="SVGID_1_" style="fill:url(#SVGID_00000041254090226326398630000012361726651260018583_);" d="M22.9,0l-0.4,1.6
				c2,0.3,2.8,1.3,2.3,3.7C20.7,23.1,7.5,31.8,7.5,31.8l-0.4,0.3c0.2,0,0.3,0.1,0.1,0.2l-0.3,0.2l-0.1-0.1c0,0.1,0,0.1,0,0.2
				l0.1,0.1l-0.3,0.1l-0.1-0.2C6.5,33,6,33,5.7,33.1c-1.1,0.6-2.4,1-3.7,1.1c0.2,0.1,0.4,0,0.6,0c0.2-0.1,0.5-0.1,0.7,0
				c0.2,0.1,0,0.2,0,0.3c-0.1-0.1-0.3,0.1-0.4,0.2c-0.2,0.2-0.3,0.4-0.5,0v0.2c-0.9,0-1.4,0.4-2.1,0.5c1.1-0.1,2.2,0,3.2-0.2
				c0.6,0,1.1-0.1,1.6-0.1C5.2,35.3,5,35.4,5,35.5c-0.1-0.1-0.3,0.1-0.4,0.2c-0.2,0.2-0.3,0.4-0.5,0v0.2c-0.9,0-1.4,0.4-2.1,0.5l0,0
				c1.1-0.1,2.2,0,3.2-0.2c1.2,0,2.4-0.1,3.4-0.7c0.1,0,0.3-0.1,0.3-0.1c1.7-0.4,17.4-4.4,24-25.7c0.3-1,1.3-4.3,1.7-7.4
				c0,0,0.5-2.3-2.4-2.3L22.9,0z"/>
		</g>
	</g>
	<g>
		<g id="g1339" transform="translate(-519.751,-1380.302)">
			<path id="path1299" class="st3" d="M573.4,1390h8.7v2.3h-8.7V1390z"/>
			<path id="path1301" class="st3" d="M579.8,1402.2c-0.6,0.6-1.2,0.9-2,0.9s-1.4-0.3-2-0.9c-0.5-0.6-0.8-1.4-0.8-2.3
				s0.3-1.6,0.8-2.3c0.5-0.6,1.2-1,2-1s1.4,0.3,2,1c0.6,0.6,0.8,1.4,0.8,2.3C580.6,1400.8,580.3,1401.6,579.8,1402.2 M585.4,1394.2
				h-15.3v2.4h3.4c-0.6,0.5-1,1.1-1.3,1.7s-0.4,1.3-0.4,1.9c0,0.7,0.1,1.4,0.4,2c0.3,0.7,0.7,1.2,1.2,1.7s1.2,0.9,1.9,1.2
				c0.7,0.3,1.5,0.4,2.4,0.4c0.8,0,1.6-0.2,2.4-0.4c0.7-0.3,1.4-0.7,1.9-1.2s1-1.1,1.3-1.7s0.5-1.3,0.5-2c0-0.6-0.2-1.3-0.5-1.9
				s-0.7-1.2-1.3-1.7h3.4L585.4,1394.2L585.4,1394.2z"/>
			<path id="path1303" class="st3" d="M574.8,1414.9v-7.5h3.2v5h13.4v2.5H574.8z"/>
			<path id="path1305" class="st3" d="M590.7,1408.5h-3.1v-19h3.1v6.1h3.7v2.5h-3.7V1408.5z"/>
			<path id="path1307" class="st3" d="M616.3,1390.2c0,0.7-0.1,1.4-0.1,2.2c-0.1,0.8-0.1,1.6-0.2,2.4c-0.1,0.8-0.2,1.6-0.3,2.3
				c-0.1,0.7-0.2,1.4-0.3,2.1h4.2v2.5h-9.9v4.2h6.2v9.4h-3.2v-7h-13.9v-2.4h7.6v-4.2h-10.5v-2.5h16.2c0.2-1,0.4-2,0.5-3.2
				c0.2-1.2,0.3-2.2,0.3-3.2H599v-2.5h17.3V1390.2z"/>
			<path id="path1309" class="st3" d="M631,1410.4v-6h3.3v6h10.2v2.5h-23.7v-2.5H631z"/>
			<path id="path1311" class="st3" d="M634.3,1390.5v3.2c0,0.9,0.2,1.7,0.7,2.6s1.1,1.7,1.9,2.5c0.8,0.8,1.7,1.5,2.8,2.2
				c1.1,0.6,2.2,1.1,3.4,1.5l-2,2c-2-0.7-3.8-1.6-5.2-2.7s-2.5-2.4-3.3-3.8c-0.8,1.4-1.9,2.7-3.4,3.8c-1.5,1.1-3.2,2-5.1,2.7l-2-2
				c1.2-0.4,2.3-0.9,3.4-1.5c1.1-0.6,2-1.4,2.8-2.1c0.8-0.8,1.4-1.6,1.9-2.5s0.7-1.7,0.7-2.6v-3.2L634.3,1390.5L634.3,1390.5z"/>
			<path id="path1313" class="st3" d="M654.9,1400.5h-5.7v-3.5h5.7V1400.5z M654.9,1390.1v4.4h-5.7v-4.4H646v12.9h12v-12.9H654.9z"
				/>
			<path id="path1315" class="st3" d="M659.9,1413c-0.7,0.7-1.5,1-2.5,1s-1.8-0.3-2.5-1s-1-1.5-1-2.5c0-0.9,0.3-1.7,1-2.4
				c0.7-0.7,1.5-1,2.5-1s1.8,0.3,2.5,1s1,1.5,1,2.4C661,1411.5,660.6,1412.3,659.9,1413 M663.6,1408.3c-0.4-0.7-0.8-1.4-1.4-1.9
				c-0.6-0.6-1.3-1-2.1-1.3s-1.7-0.5-2.6-0.5c-1,0-1.8,0.2-2.7,0.5c-0.8,0.3-1.5,0.8-2.1,1.3s-1.1,1.2-1.4,1.9
				c-0.3,0.7-0.5,1.5-0.5,2.3s0.2,1.5,0.5,2.3c0.3,0.7,0.8,1.3,1.4,1.9c0.6,0.5,1.3,1,2.1,1.3s1.7,0.5,2.7,0.5
				c0.9,0,1.8-0.2,2.6-0.5s1.5-0.7,2.1-1.3c0.6-0.5,1.1-1.2,1.4-1.9c0.4-0.7,0.5-1.5,0.5-2.3C664.2,1409.8,664,1409,663.6,1408.3"/>
			<path id="path1317" class="st3" d="M664.7,1404.7h-3.1v-15.2h3.1v5.3h3.7v2.5h-3.7V1404.7z"/>
			<path id="path1319" class="st3" d="M680.1,1398c-0.2,0.5-0.4,0.9-0.7,1.2c-0.3,0.4-0.7,0.6-1.1,0.8c-0.4,0.2-0.8,0.3-1.3,0.3
				c-1,0-1.8-0.4-2.4-1.1c-0.6-0.8-1-1.7-1-2.7c0-1.1,0.3-2,1-2.7c0.7-0.8,1.5-1.1,2.4-1.1s1.7,0.4,2.4,1.1c0.6,0.8,1,1.7,1,2.7
				C680.4,1397,680.3,1397.5,680.1,1398 M683.2,1394.1c-0.4-0.8-0.8-1.4-1.4-2c-0.6-0.6-1.3-1-2.1-1.4c-0.8-0.3-1.7-0.5-2.6-0.5
				c-1,0-1.8,0.2-2.7,0.5c-0.8,0.3-1.5,0.8-2.1,1.4s-1.1,1.2-1.4,2c-0.3,0.8-0.5,1.6-0.5,2.4s0.2,1.6,0.5,2.4s0.8,1.4,1.4,2
				c0.6,0.6,1.3,1,2.1,1.4c0.8,0.3,1.7,0.5,2.7,0.5c0.9,0,1.8-0.2,2.6-0.5s1.5-0.8,2.1-1.4s1.1-1.2,1.4-2c0.4-0.8,0.5-1.6,0.5-2.4
				C683.7,1395.6,683.5,1394.8,683.2,1394.1"/>
			<path id="path1321" class="st3" d="M674.3,1414.9v-8.2h3.2v5.7h13.4v2.5H674.3z"/>
			<path id="path1323" class="st3" d="M700.5,1414.9v-8.2h3.2v5.7h13.4v2.5H700.5z"/>
			<path id="path1325" class="st3" d="M724.5,1414.9v-6h3.2v3.5h13.7v2.5H724.5z"/>
			<path id="path1327" class="st3" d="M690.3,1389.5v5.3h3.7v2.5h-3.7v10.5h-3.1v-18.3H690.3z"/>
			<path id="path1329" class="st3" d="M710.1,1393h-5v2.6c0,0.9,0.2,1.8,0.5,2.6c0.3,0.8,0.8,1.6,1.4,2.2c0.6,0.7,1.2,1.3,2,1.9
				s1.6,1.1,2.4,1.5l-2.3,1.9c-1.3-0.7-2.4-1.6-3.4-2.5s-1.7-1.9-2.2-2.9c-0.6,1.2-1.4,2.3-2.5,3.3s-2.2,1.8-3.5,2.6l-2.4-1.8
				c0.9-0.5,1.8-1,2.6-1.6s1.5-1.3,2.2-2c0.6-0.7,1.1-1.5,1.5-2.4c0.4-0.8,0.5-1.7,0.5-2.7v-2.6h-5v-2.4H710v2.3H710.1z"/>
			<path id="path1331" class="st3" d="M713.6,1398.1h-4.8v-2.5h4.8v-6.1h3.1v18.7h-3.1V1398.1z"/>
			<path id="path1333" class="st3" d="M726,1407.7v-3.8h-5.8v-2.4h5.7c0.7,0,1.4,0,2.3-0.1c0.9,0,1.8-0.1,2.8-0.2
				c0.9-0.1,1.9-0.2,2.8-0.3c0.9-0.1,1.8-0.3,2.6-0.4v2.4c-1.1,0.2-2.2,0.4-3.5,0.5c-1.2,0.1-2.5,0.2-3.8,0.3v3.9L726,1407.7
				L726,1407.7z"/>
			<path id="path1335" class="st3" d="M730.2,1397c-0.6,0.6-1.3,0.9-2.1,0.9s-1.6-0.3-2.1-0.9c-0.6-0.6-0.9-1.3-0.9-2.1
				c0-0.8,0.3-1.5,0.9-2.1c0.6-0.6,1.3-0.9,2.1-0.9s1.5,0.3,2.1,0.9s0.9,1.3,0.9,2.1C731.1,1395.7,730.8,1396.4,730.2,1397
				 M733.8,1392.8c-0.3-0.7-0.8-1.2-1.3-1.7c-0.6-0.5-1.2-0.9-2-1.2c-0.8-0.3-1.6-0.4-2.4-0.4c-0.9,0-1.7,0.1-2.5,0.4
				s-1.4,0.7-2,1.2s-1,1.1-1.3,1.7s-0.5,1.3-0.5,2s0.2,1.4,0.5,2.1c0.3,0.6,0.8,1.2,1.3,1.7c0.6,0.5,1.2,0.9,2,1.2
				c0.8,0.3,1.6,0.4,2.5,0.4s1.7-0.1,2.4-0.4c0.8-0.3,1.4-0.7,2-1.2s1-1,1.3-1.7s0.5-1.3,0.5-2.1
				C734.3,1394.1,734.1,1393.5,733.8,1392.8"/>
			<path id="path1337" class="st3" d="M737.9,1406.9h-5.8v-2.4h5.8v-15.1h3.1v19.8h-3.1V1406.9z"/>
		</g>
	</g>
</g>
</svg>
